<?xml version="1.0" standalone="no"?>
<!-- Generator: Adobe Illustrator 24.0.1, SVG Export Plug-In . SVG Version: 6.00 Build 0)  -->
<svg version="1.0" xmlns="http://www.w3.org/2000/svg" width="16.000000pt" height="16.000000pt" viewBox="0 0 16.000000 16.000000"
 preserveAspectRatio="xMidYMid meet">
<title>icon</title>
<g class="st0">
	<path d="M184,409.6V71.1h228.3V111H228.8v104.8h158.8v39.9H228.8v153.7L184,409.6L184,409.6z"/>
</g>
<path d="M92.6,71.1c-36.7,0-66.5,29.8-66.5,66.5s29.8,66.5,66.5,66.5s66.5-29.8,66.5-66.5S129.3,71.1,92.6,71.1z M92.6,190
	c-28.9,0-52.4-23.5-52.4-52.4c0-28.9,23.5-52.4,52.4-52.4s52.4,23.5,52.4,52.4C145,166.5,121.5,190,92.6,190z"/>
</svg>
